<svg width="398" height="512" viewBox="0 0 398 512" fill="none" xmlns="http://www.w3.org/2000/svg">
<path d="M235.986 283.5H166.986V503.759C157.102 499.763 147.322 494.67 137.986 489.069V385.5H68.9863V435C66.4863 433 -78.5137 293 59.4863 136.5C60.4863 156.833 67.6865 203.3 88.4863 226.5C68.9863 136.5 119.285 8.80005 260.486 0C250.319 12 230.886 44.1001 234.486 76.5C238.169 109.643 254.576 135.42 265.073 151.911L265.074 151.914L265.104 151.961C267.421 155.601 269.449 158.788 270.986 161.5C277.786 173.5 297.486 205.5 306.486 220C314.653 231.833 330.586 262.3 328.986 285.5C350.986 250 362.586 216.7 362.986 155.5C397.986 229 429.986 399.5 333.986 470.5V338.5H264.986V507.644C256.534 509.288 246.933 510.595 235.986 511.437V283.5Z" fill="url(#paint0_linear_79_22)"/>
<defs>
<linearGradient id="paint0_linear_79_22" x1="198.809" y1="0" x2="198.809" y2="511.437" gradientUnits="userSpaceOnUse">
<stop stop-color="#FFA56A"/>
<stop offset="1" stop-color="#FD6555"/>
</linearGradient>
</defs>
</svg>
